# xmcd CD database file
#
# Track frame offsets:
#	183
#	17593
#	35885
#	48060
#	65228
#	81175
#	97623
#	120168
#	134375
#	148018
#	164845
#
# Disc length: 2427 seconds
#
# Revision: 0
# Processed by: cddbd v1.4PL0 Copyright (c) Steve Scherf et al.
# Submitted via: CDex 1.50beta10
#
DISCID=9109790b
DTITLE=Doctor Ross - I Want All My Friends to Know - Live At The Burnley Blues Festival 1991
DYEAR=1994
DGENRE=Blues
TTITLE0=My Little Woman
TTITLE1=Cat Squirrel
TTITLE2=I Want All My Friends to Know
TTITLE3=Boogie for the Doctor
TTITLE4=Hobo Blues
TTITLE5=Break 'Em Down
TTITLE6=G.M. Blues
TTITLE7=Baby Please Don't Go
TTITLE8=That's Alright Mama
TTITLE9=Burnley Boogie
TTITLE10=Little School Girl
EXTD=YEAR: 1994
EXTT0=
EXTT1=
EXTT2=
EXTT3=
EXTT4=
EXTT5=
EXTT6=
EXTT7=
EXTT8=
EXTT9=
EXTT10=
PLAYORDER=
